<svg xmlns="http://www.w3.org/2000/svg" viewBox="0 0 64 64"><defs><style>.cls-1{fill:#ff7878;}</style></defs><title>资源 1</title><g id="图层_2" data-name="图层 2"><g id="Icon"><path class="cls-1" d="M25.56,43.35A2.67,2.67,0,0,0,28.22,46h7.55a2.67,2.67,0,0,0,2.67-2.67V38.44h4.91A2.67,2.67,0,0,0,46,35.78V28.22a2.67,2.67,0,0,0-2.67-2.67H38.44V20.65A2.67,2.67,0,0,0,35.78,18H28.22a2.67,2.67,0,0,0-2.67,2.67v4.91H20.65A2.67,2.67,0,0,0,18,28.22v7.55a2.67,2.67,0,0,0,2.67,2.67h4.91Zm-4.91-7.57V28.22h7.57V20.65h7.55v7.57h7.57v7.55H35.78v7.57H28.22V35.78Z"/><path class="cls-1" d="M19.92,51.33A22.79,22.79,0,0,1,41,11.07a1.33,1.33,0,0,0,1.06-2.45,25.46,25.46,0,0,0-23.58,45,1.33,1.33,0,1,0,1.42-2.26Z"/><path class="cls-1" d="M55.54,22.3a1.33,1.33,0,0,0-2.47,1A22.8,22.8,0,0,1,25.16,53.74a1.33,1.33,0,1,0-.8,2.54,25.47,25.47,0,0,0,31.18-34Z"/><path class="cls-1" d="M45.82,13.88a22.87,22.87,0,0,1,4.78,5,1.33,1.33,0,1,0,2.18-1.54,25.51,25.51,0,0,0-5.34-5.54,1.33,1.33,0,0,0-1.62,2.12Z"/><path class="cls-1" d="M32,0A32,32,0,1,0,64,32,32,32,0,0,0,32,0Zm0,60A28,28,0,1,1,60,32,28,28,0,0,1,32,60Z"/></g></g></svg>