<svg xmlns="http://www.w3.org/2000/svg" viewBox="0 0 46.75 64"><defs><style>.cls-1{fill:#ff7878;}</style></defs><title>资源 4</title><g id="图层_2" data-name="图层 2"><g id="Icon"><path class="cls-1" d="M40,14.79H6.71a4,4,0,0,0-4,4V60a4,4,0,0,0,4,4H40a4,4,0,0,0,4-4V18.81A4,4,0,0,0,40,14.79ZM40,60H6.71V18.81H40Z"/><path class="cls-1" d="M44.74,7.54h-12A9.55,9.55,0,0,0,14,7.54H2a2,2,0,1,0,0,4H44.74a2,2,0,1,0,0-4ZM23.38,4a5.53,5.53,0,0,1,5.14,3.52H18.23A5.53,5.53,0,0,1,23.38,4Z"/><path class="cls-1" d="M13.7,54.83A1.34,1.34,0,0,0,15,53.49V25.6a1.34,1.34,0,0,0-2.68,0V53.49A1.34,1.34,0,0,0,13.7,54.83Z"/><path class="cls-1" d="M23,54.83a1.34,1.34,0,0,0,1.34-1.34V25.6a1.34,1.34,0,0,0-2.68,0V53.49A1.34,1.34,0,0,0,23,54.83Z"/><path class="cls-1" d="M32.31,54.83a1.34,1.34,0,0,0,1.34-1.34V36.23a1.34,1.34,0,1,0-2.68,0V53.49A1.34,1.34,0,0,0,32.31,54.83Z"/><path class="cls-1" d="M32.31,31.16a1.34,1.34,0,0,0,1.34-1.34V25.6a1.34,1.34,0,1,0-2.68,0v4.21A1.34,1.34,0,0,0,32.31,31.16Z"/></g></g></svg>